<svg width="960" height="600" viewBox="0 0 960 600" fill="none" xmlns="http://www.w3.org/2000/svg">
  <rect width="960" height="600" rx="36" fill="#FFF8EF"/>
  <text x="54" y="70" fill="#6757FF" font-family="Arial" font-size="18" font-weight="900" letter-spacing="5">CARTOON MODE</text>
  <text x="54" y="118" fill="#1D1B24" font-family="Arial" font-size="42" font-weight="900">Edit a preset cartoon pet</text>
  <rect x="54" y="164" width="88" height="360" rx="26" fill="#FFF" fill-opacity=".76" stroke="#ECE2D8"/>
  <text x="76" y="199" fill="#6D6573" font-family="Arial" font-size="13" font-weight="900">TOOLS</text>
  <circle cx="86" cy="236" r="20" fill="#F5F1FF"/><path d="M77 236h18M86 227v18" stroke="#403848" stroke-width="3"/>
  <circle cx="112" cy="236" r="20" fill="#E7EDFF"/><path d="M104 244l17-17" stroke="#6757FF" stroke-width="4" stroke-linecap="round"/>
  <text x="75" y="292" fill="#6D6573" font-family="Arial" font-size="13" font-weight="900">COLORS</text>
  <circle cx="82" cy="325" r="17" fill="#221F28"/><circle cx="115" cy="325" r="17" fill="#FF4D6D"/>
  <circle cx="82" cy="362" r="17" fill="#FFD166"/><circle cx="115" cy="362" r="17" fill="#38B76B"/>
  <circle cx="82" cy="399" r="17" fill="#3D8BFF"/><circle cx="115" cy="399" r="17" fill="#8F5CFF"/>
  <rect x="170" y="164" width="438" height="360" rx="28" fill="#F7F8FF" stroke="#DAD6FF" stroke-dasharray="8 8"/>
  <rect x="206" y="406" width="366" height="64" rx="32" fill="white" fill-opacity=".82"/>
  <circle cx="246" cy="438" r="20" fill="#6757FF"/><path d="M237 438h18" stroke="white" stroke-width="4" stroke-linecap="round"/>
  <rect x="320" y="433" width="126" height="10" rx="5" fill="#D8E4FF"/>
  <circle cx="470" cy="438" r="20" fill="#6757FF"/><path d="M461 438h18M470 429v18" stroke="white" stroke-width="4" stroke-linecap="round"/>
  <rect x="504" y="414" width="86" height="48" rx="24" fill="#2BBF73"/><text x="528" y="445" fill="white" font-family="Arial" font-size="16" font-weight="900">Save</text>
  <g transform="translate(305 250)">
    <ellipse cx="95" cy="80" rx="92" ry="46" fill="#FFF" stroke="#1D1B24" stroke-width="5"/>
    <path d="M156 65c42-42 76-22 40 18" stroke="#9B622F" stroke-width="26" stroke-linecap="round"/>
    <circle cx="56" cy="47" r="35" fill="#D89249" stroke="#1D1B24" stroke-width="5"/>
    <circle cx="45" cy="42" r="5" fill="#1D1B24"/><circle cx="67" cy="42" r="5" fill="#1D1B24"/>
    <path d="M39 62c17 13 38 13 54 0" stroke="#1D1B24" stroke-width="5" stroke-linecap="round"/>
    <path d="M50 120v45M128 120v45" stroke="#1D1B24" stroke-width="11" stroke-linecap="round"/>
  </g>
  <rect x="650" y="174" width="238" height="340" rx="30" fill="#FFFFFF" fill-opacity=".72"/>
  <rect x="688" y="226" width="168" height="86" rx="24" fill="url(#b)"/>
  <text x="739" y="286" fill="white" font-family="Arial" font-size="20" font-weight="900">Overview</text>
  <rect x="710" y="352" width="124" height="70" rx="20" fill="#FFF8EF" stroke="#E8DFD4"/>
  <text x="752" y="397" fill="#403848" font-family="Arial" font-size="16" font-weight="900">head</text>
  <defs><linearGradient id="b" x1="688" y1="226" x2="856" y2="312"><stop stop-color="#6757FF"/><stop offset="1" stop-color="#3D8BFF"/></linearGradient></defs>
</svg>
